<svg xmlns="http://www.w3.org/2000/svg" viewBox="0 0 180 110">
  <defs>
    <linearGradient id="b" x1="0" x2="1"><stop stop-color="#ffb28d"/><stop offset="1" stop-color="#f48b66"/></linearGradient>
    <linearGradient id="f" x1="0" x2="1"><stop stop-color="#ffd2b8"/><stop offset="1" stop-color="#ff9d7a"/></linearGradient>
  </defs>
  <ellipse cx="85" cy="57" rx="45" ry="28" fill="url(#b)"/>
  <path d="M45 58C25 37 10 30 6 36c-4 7 8 22 24 30-14 11-23 26-17 31 7 5 25-9 37-26" fill="url(#f)"/>
  <path d="M78 30c-8-15 7-23 18-9 7 9 6 18 2 23" fill="#ffc4a4" opacity=".92"/>
  <path d="M80 82c-2 17 14 23 21 8 4-9 0-17-4-22" fill="#ffc4a4" opacity=".88"/>
  <path d="M113 41c15-8 31 1 39 13-11 6-24 12-39 17" fill="#ffd4bf" opacity=".85"/>
  <ellipse cx="123" cy="53" rx="13" ry="9" fill="#fff8ee" opacity=".95"/>
  <path d="M132 54c8 0 13 2 18 6-7 3-13 4-19 3" fill="#ffe1cf"/>
</svg>
